{
	"asset":{
		"generator":"Khronos glTF Blender I/O v4.3.47",
		"version":"2.0"
	},
	"scene":0,
	"scenes":[
		{
			"name":"Scene",
			"nodes":[
				0
			]
		}
	],
	"nodes":[
		{
			"mesh":0,
			"name":"Curve",
			"rotation":[
				-1,
				0,
				0,
				4.371138828673793e-08
			],
			"scale":[
				30,
				1,
				30
			],
			"translation":[
				0,
				0.5,
				0
			]
		}
	],
	"materials":[
		{
			"doubleSided":true,
			"name":"SVGMat",
			"pbrMetallicRoughness":{
				"baseColorFactor":[
					0,
					0.6514056324958801,
					0.8879231214523315,
					1
				],
				"metallicFactor":0,
				"roughnessFactor":0.4000000059604645
			}
		}
	],
	"meshes":[
		{
			"name":"Curve",
			"primitives":[
				{
					"attributes":{
						"POSITION":0,
						"NORMAL":1,
						"TEXCOORD_0":2
					},
					"indices":3,
					"material":0
				}
			]
		}
	],
	"accessors":[
		{
			"bufferView":0,
			"componentType":5126,
			"count":3540,
			"max":[
				0.05661896616220474,
				0.5001000165939331,
				0.05345134809613228
			],
			"min":[
				-0.05661895126104355,
				-0.5001000165939331,
				-0.05975702777504921
			],
			"type":"VEC3"
		},
		{
			"bufferView":1,
			"componentType":5126,
			"count":3540,
			"type":"VEC3"
		},
		{
			"bufferView":2,
			"componentType":5126,
			"count":3540,
			"type":"VEC2"
		},
		{
			"bufferView":3,
			"componentType":5123,
			"count":18612,
			"type":"SCALAR"
		}
	],
	"bufferViews":[
		{
			"buffer":0,
			"byteLength":42480,
			"byteOffset":0,
			"target":34962
		},
		{
			"buffer":0,
			"byteLength":42480,
			"byteOffset":42480,
			"target":34962
		},
		{
			"buffer":0,
			"byteLength":28320,
			"byteOffset":84960,
			"target":34962
		},
		{
			"buffer":0,
			"byteLength":37224,
			"byteOffset":113280,
			"target":34963
		}
	],
	"buffers":[
		{
			"byteLength":150504,
			"uri":"m-logo.bin"
		}
	]
}
